:FULLY-SPECIFIED
:FORCE-ALL-JOINTS-BE-3DOF
:DEGREES
306
root -1.30244 15.4192 -36.2103 27.5506 70.7618 23.0961
lfemur -21.9271 19.7515 -20.5582
ltibia 57.614 0 0
lfoot -27.2079 29.465 0
ltoes -4.58229 0 0
rfemur -34.201 -10.4573 10.3473
rtibia 83.3557 0 0
rfoot -10.7516 -13.2048 0
rtoes 4.1126 0 0
lowerback 16.5003 -2.18824 -10.0435
upperback -1.34427 -4.71112 1.93464
thorax -9.80514 -1.63957 8.98798
lowerneck -7.13672 3.47695 0.920646
upperneck 2.97766 4.80794 -4.69713
head 2.33411 2.27651 -1.4586
lclavicle -3.45885e-14 -7.95139e-16 0
lhumerus 18.8272 -15.6718 66.7643
lradius 28.5828 0 0
lwrist -42.1477 0 0
lhand -20.4715 29.5167 0
lfingers 7.12502 0 0
lthumb 5.88459 59.415 0
rclavicle -3.45885e-14 -7.95139e-16 0
rhumerus -61.0739 6.39287 -89.1735
rradius 97.5763 0 0
rwrist -66.5616 0 0
rhand -5.30554 -35.5383 0
rfingers 7.12502 0 0
rthumb 20.4998 -64.476 0
307
root -1.16394 15.4083 -36.1978 28.7552 70.7487 24.8541
lfemur -20.2663 18.1871 -20.4353
ltibia 56.7407 0 0
lfoot -27.0814 29.3121 0
ltoes -4.83299 0 0
rfemur -35.8135 -10.0468 10.413
rtibia 81.8451 0 0
rfoot -10.0136 -12.5761 0
rtoes 4.25199 0 0
lowerback 16.8407 -1.66903 -10.5655
upperback -1.21366 -4.18645 1.60323
thorax -9.96337 -1.36042 8.82257
lowerneck -7.01516 3.0726 0.630953
upperneck 2.93353 4.28129 -4.49596
head 2.26605 2.01873 -1.36775
lclavicle -3.55825e-14 1.43125e-14 0
lhumerus 20.0061 -19.203 66.5115
lradius 30.1479 0 0
lwrist -39.2049 0 0
lhand -21.0625 27.146 0
lfingers 7.12502 0 0
lthumb 5.31405 57.0593 0
rclavicle -3.55825e-14 1.43125e-14 0
rhumerus -61.579 9.01792 -91.4038
rradius 99.768 0 0
rwrist -59.0868 0 0
rhand -3.70011 -27.1622 0
rfingers 7.12502 0 0
rthumb 22.0419 -55.926 0
308
root -1.01821 15.3922 -36.1866 28.9531 70.8167 25.9038
lfemur -18.5963 16.614 -20.3117
ltibia 55.9802 0 0
lfoot -26.9577 29.1626 0
ltoes -5.10361 0 0
rfemur -37.4914 -9.61958 10.4814
rtibia 80.1326 0 0
rfoot -9.35137 -12.0119 0
rtoes 4.30463 0 0
lowerback 17.4245 -1.20823 -10.8434
upperback -1.00099 -3.70557 1.36184
thorax -10.1664 -1.1124 8.63466
lowerneck -6.81881 2.77332 0.253512
upperneck 2.88687 3.89805 -4.22765
head 2.18604 1.83389 -1.2339
lclavicle 1.86858e-14 -4.05521e-14 0
lhumerus 21.0414 -22.6222 66.23
lradius 31.6491 0 0
lwrist -36.2614 0 0
lhand -22.7114 27.2379 0
lfingers 7.12502 0 0
lthumb 3.72181 57.1852 0
rclavicle 1.86858e-14 -4.05521e-14 0
rhumerus -61.5632 11.7713 -93.1373
rradius 102.215 0 0
rwrist -54.6852 0 0
rhand 0.548419 -20.979 0
rfingers 7.12502 0 0
rthumb 26.1156 -49.2032 0
309
root -0.871526 15.3772 -36.1717 29.1304 71.0279 27.1509
lfemur -16.9354 15.0496 -20.1888
ltibia 55.3531 0 0
lfoot -26.8389 29.019 0
ltoes -5.38917 0 0
rfemur -39.2086 -9.18241 10.5514
rtibia 78.2407 0 0
rfoot -8.77867 -11.5241 0
rtoes 4.4568 0 0
lowerback 18.1589 -0.700861 -11.1603
upperback -0.71245 -3.18563 1.13369
thorax -10.3731 -0.846022 8.47119
lowerneck -6.58612 2.42676 -0.0720245
upperneck 2.87965 3.44037 -3.84381
head 2.11243 1.61478 -1.07513
lclavicle 7.13637e-14 1.19271e-14 0
lhumerus 22.1654 -25.9016 66.0457
lradius 33.0369 0 0
lwrist -34.1785 0 0
lhand -23.9523 28.1299 0
lfingers 7.12502 0 0
lthumb 2.52346 58.0947 0
rclavicle 7.13637e-14 1.19271e-14 0
rhumerus -61.1001 14.762 -94.7098
rradius 105.101 0 0
rwrist -55.4721 0 0
rhand 2.99123 -14.5991 0
rfingers 7.12502 0 0
rthumb 28.4522 -42.4557 0
310
root -0.721835 15.3617 -36.1538 28.9953 71.4231 28.3115
lfemur -15.3021 13.5111 -20.0679
ltibia 54.8797 0 0
lfoot -26.7268 28.8835 0
ltoes -5.6847 0 0
rfemur -40.939 -8.7419 10.622
rtibia 76.1916 0 0
rfoot -8.30926 -11.1242 0
rtoes 4.69982 0 0
lowerback 19.1104 -0.217413 -11.4631
upperback -0.333249 -2.70799 1.00557
thorax -10.5823 -0.600542 8.42082
lowerneck -6.52859 2.08233 -0.289046
upperneck 3.02378 2.98419 -3.48775
head 2.12763 1.39236 -0.942162
lclavicle 2.3556e-14 7.15625e-15 0
lhumerus 23.2843 -28.833 65.994
lradius 34.2888 0 0
lwrist -32.8297 0 0
lhand -25.5996 27.5272 0
lfingers 7.12502 0 0
lthumb 0.932424 57.5049 0
rclavicle 2.3556e-14 7.15625e-15 0
rhumerus -60.2519 18.1877 -96.3156
rradius 108.005 0 0
rwrist -57.2304 0 0
rhand 3.50003 -6.36156 0
rfingers 7.12502 0 0
rthumb 28.9383 -34.1359 0
311
root -0.568613 15.3463 -36.126 28.8257 72.0455 29.3448
lfemur -13.7146 12.0158 -19.9504
ltibia 54.5806 0 0
lfoot -26.6235 28.7586 0
ltoes -5.9852 0 0
rfemur -42.6562 -8.30473 10.692
rtibia 74.008 0 0
rfoot -7.95692 -10.824 0
rtoes 5.02506 0 0
lowerback 20.5175 0.214431 -11.2908
upperback -0.354421 -2.30051 0.749717
thorax -11.5146 -0.352814 7.9917
lowerneck -6.27414 1.65809 -0.534648
upperneck 3.50828 2.41151 -2.81345
head 2.21466 1.11666 -0.708694
lclavicle 1.67973e-14 4.21423e-14 0
lhumerus 23.8846 -32.1943 66.1246
lradius 35.5228 0 0
lwrist -31.5514 0 0
lhand -26.2762 28.948 0
lfingers 7.12502 0 0
lthumb 0.278968 58.9275 0
rclavicle 1.67973e-14 4.21423e-14 0
rhumerus -58.1672 20.4066 -95.5604
rradius 112.675 0 0
rwrist -56.0741 0 0
rhand 11.6068 -17.4007 0
rfingers 7.12502 0 0
rthumb 36.6487 -43.5552 0
312
root -0.411002 15.3321 -36.0888 29.0759 72.8709 30.5755
lfemur -12.1913 10.5809 -19.8377
ltibia 54.4764 0 0
lfoot -26.5307 28.6464 0
ltoes -6.28571 0 0
rfemur -44.3341 -7.87755 10.7604
rtibia 71.7122 0 0
rfoot -7.73542 -10.6353 0
rtoes 5.42385 0 0
lowerback 21.3139 0.499822 -11.4366
upperback -0.151326 -2.04203 0.719588
thorax -11.7828 -0.208258 7.99628
lowerneck -6.23068 1.33849 -0.641323
upperneck 3.73476 1.97645 -2.42048
head 2.2689 0.906559 -0.582246
lclavicle 5.24792e-14 -3.73715e-14 0
lhumerus 24.704 -34.7359 66.4285
lradius 36.4747 0 0
lwrist -30.7442 0 0
lhand -22.6145 37.9597 0
lfingers 7.12502 0 0
lthumb 3.81537 67.9052 0
rclavicle 5.24792e-14 -3.73715e-14 0
rhumerus -55.3381 23.7255 -95.3009
rradius 116.665 0 0
rwrist -57.2287 0 0
rhand 12.4235 -19.3189 0
rfingers 7.12502 0 0
rthumb 37.4212 -45.2733 0
313
root -0.246683 15.3228 -36.0414 30.0996 74.0518 32.5001
lfemur -10.7505 9.22373 -19.731
ltibia 54.4266 0 0
lfoot -26.4504 28.5495 0
ltoes -6.58124 0 0
rfemur -45.9466 -7.46704 10.8261
rtibia 69.3267 0 0
rfoot -7.65852 -10.5698 0
rtoes 5.88755 0 0
lowerback 21.9761 0.742534 -11.8616
upperback 0.0495863 -1.8644 0.964405
thorax -11.9406 -0.0825177 8.49562
lowerneck -6.18987 0.977444 -1.10838
upperneck 3.91031 1.51016 -1.93569
head 2.30498 0.67943 -0.366012
lclavicle 2.01766e-14 -2.78299e-14 0
lhumerus 25.3918 -37.1881 67.1453
lradius 37.4709 0 0
lwrist -29.5934 0 0
lhand -26.495 31.5005 0
lfingers 7.12502 0 0
lthumb 0.0676285 61.4803 0
rclavicle 2.01766e-14 -2.78299e-14 0
rhumerus -51.5159 26.9355 -93.6903
rradius 120.37 0 0
rwrist -57.1338 0 0
rhand 14.0058 -20.2448 0
rfingers 7.12502 0 0
rthumb 38.915 -45.7891 0
314
root -0.0746233 15.3148 -35.9901 32.1768 75.3223 35.126
lfemur -9.41052 7.96155 -19.6318
ltibia 54.2839 0 0
lfoot -26.3847 28.47 0
ltoes -6.8668 0 0
rfemur -47.4674 -7.07987 10.8881
rtibia 66.8738 0 0
rfoot -7.56784 -10.4276 0
rtoes 6.4075 0 0
lowerback 22.3859 0.800883 -12.0213
upperback 0.0447938 -1.87253 1.0347
thorax -12.1682 -0.0539755 8.69098
lowerneck -5.97677 0.626301 -1.35873
upperneck 4.06685 1.03209 -1.4328
head 2.31022 0.451177 -0.182373
lclavicle -5.40694e-14 -5.56597e-15 0
lhumerus 25.7357 -39.574 68.0146
lradius 38.2288 0 0
lwrist -28.2481 0 0
lhand -25.7785 33.0367 0
lfingers 7.12502 0 0
lthumb 0.759699 63.0151 0
rclavicle -5.40694e-14 -5.56597e-15 0
rhumerus -47.064 29.9823 -91.8175
rradius 123.405 0 0
rwrist -55.6085 0 0
rhand 16.6886 -19.4543 0
rfingers 7.12502 0 0
rthumb 41.4387 -44.2296 0
315
root 0.104905 15.3096 -35.9358 35.3228 76.6863 38.6732
lfemur -8.18973 6.81162 -19.5415
ltibia 54.0579 0 0
lfoot -26.3353 28.4103 0
ltoes -7.13742 0 0
rfemur -48.8704 -6.72268 10.9453
rtibia 64.3761 0 0
rfoot -7.30662 -10.018 0
rtoes 6.97504 0 0
lowerback 22.5426 0.772672 -12.1852
upperback 0.0222929 -1.96319 1.12336
thorax -12.2533 -0.0733855 8.92599
lowerneck -5.72363 0.268775 -1.5708
upperneck 4.19261 0.542168 -0.97062
head 2.30292 0.216805 -0.0183309
lclavicle -2.127e-14 1.27222e-14 0
lhumerus 25.8959 -41.9083 69.0724
lradius 38.8668 0 0
lwrist -26.5067 0 0
lhand -24.9742 34.5862 0
lfingers 7.12502 0 0
lthumb 1.53645 64.5604 0
rclavicle -2.127e-14 1.27222e-14 0
rhumerus -41.4074 32.56 -88.7539
rradius 125.704 0 0
rwrist -52.323 0 0
rhand 22.2444 -17.7697 0
rfingers 7.12502 0 0
rthumb 46.6199 -40.6016 0
316
root 0.296253 15.3068 -35.8705 38.8334 78.0376 42.4757
lfemur -7.10644 5.79123 -19.4613
ltibia 53.7586 0 0
lfoot -26.3043 28.3728 0
ltoes -7.38812 0 0
rfemur -50.1294 -6.40216 10.9966
rtibia 61.856 0 0
rfoot -6.89111 -9.36639 0
rtoes 7.58152 0 0
lowerback 22.3648 0.722999 -12.3239
upperback 0.0382666 -2.02099 1.27043
thorax -12.1105 -0.0977334 9.18801
lowerneck -5.50601 -0.107707 -1.94216
upperneck 4.33278 0.0327216 -0.390636
head 2.31182 -0.0269426 0.210461
lclavicle -7.69297e-14 -5.56597e-15 0
lhumerus 25.5754 -43.7991 70.6484
lradius 39.3851 0 0
lwrist -24.6359 0 0
lhand -24.162 34.89 0
lfingers 7.12502 0 0
lthumb 2.32088 64.8571 0
rclavicle -7.69297e-14 -5.56597e-15 0
rhumerus -34.6803 34.5056 -84.9461
rradius 127.048 0 0
rwrist -47.7571 0 0
rhand 28.2842 -13.2918 0
rfingers 7.12502 0 0
rthumb 52.1579 -33.3032 0
317
root 0.491094 15.3066 -35.797 42.5138 79.5825 46.2922
lfemur -6.17901 4.91763 -19.3927
ltibia 53.3956 0 0
lfoot -26.2935 28.3598 0
ltoes -7.61391 0 0
rfemur -51.2182 -6.12497 11.041
rtibia 59.3359 0 0
rfoot -6.33755 -8.49832 0
rtoes 8.21829 0 0
lowerback 22.0174 0.504656 -12.0855
upperback 0.0196518 -2.18371 1.43062
thorax -11.8967 -0.199468 9.2699
lowerneck -5.30941 -0.478552 -2.26006
upperneck 4.50063 -0.477577 0.242564
head 2.34043 -0.26913 0.447995
lclavicle 2.70347e-14 7.95139e-16 0
lhumerus 24.2107 -45.2638 72.844
lradius 40.2181 0 0
lwrist -22.9037 0 0
lhand -24.4639 34.4431 0
lfingers 7.12502 0 0
lthumb 2.02931 64.4132 0
rclavicle 2.70347e-14 7.95139e-16 0
rhumerus -26.9461 35.2991 -80.3919
rradius 127.626 0 0
rwrist -43.8305 0 0
rhand 35.8764 -9.24206 0
rfingers 7.12502 0 0
rthumb 58.898 -24.1294 0
